<?xml version="1.0" encoding="UTF-8" standalone="no"?>
<!-- Created with Inkscape (http://www.inkscape.org/) -->

<svg
   xmlns:dc="http://purl.org/dc/elements/1.1/"
   xmlns:cc="http://creativecommons.org/ns#"
   xmlns:rdf="http://www.w3.org/1999/02/22-rdf-syntax-ns#"
   xmlns:svg="http://www.w3.org/2000/svg"
   xmlns="http://www.w3.org/2000/svg"
   xmlns:sodipodi="http://sodipodi.sourceforge.net/DTD/sodipodi-0.dtd"
   xmlns:inkscape="http://www.inkscape.org/namespaces/inkscape"
   id="svg2"
   xml:space="preserve"
   viewBox="0 0 422.07785 793.57898"
   version="1.1"
   inkscape:version="0.91 r13725"
   sodipodi:docname="hotsauce.svg"
   width="422.07785"
   height="793.57898"><sodipodi:namedview
     pagecolor="#ffffff"
     bordercolor="#666666"
     borderopacity="1"
     objecttolerance="10"
     gridtolerance="10"
     guidetolerance="10"
     inkscape:pageopacity="0"
     inkscape:pageshadow="2"
     inkscape:window-width="1916"
     inkscape:window-height="1035"
     id="namedview21881"
     showgrid="false"
     fit-margin-top="0"
     fit-margin-left="0"
     fit-margin-right="0"
     fit-margin-bottom="0"
     inkscape:zoom="1"
     inkscape:cx="425.92441"
     inkscape:cy="280.97307"
     inkscape:window-x="4"
     inkscape:window-y="1"
     inkscape:window-maximized="1"
     inkscape:current-layer="g12" /><defs
     id="defs6"><linearGradient
       id="linearGradient28"
       y2="-111.45"
       gradientUnits="userSpaceOnUse"
       x2="75.025002"
       gradientTransform="matrix(0.112,0,0,0.09949,0.0032833,71.314)"
       y1="-111.45"
       x1="119.08"><stop
         id="stop30"
         style="stop-color:#300503"
         offset="0" /><stop
         id="stop32"
         style="stop-color:#8e3a31"
         offset=".7529" /><stop
         id="stop34"
         style="stop-color:#ad463a"
         offset=".89410" /><stop
         id="stop36"
         style="stop-color:#720d07"
         offset=".97250" /><stop
         id="stop38"
         style="stop-color:#720d07"
         offset="1" /></linearGradient><linearGradient
       id="linearGradient54"
       y2="-273.42999"
       gradientUnits="userSpaceOnUse"
       x2="56.262001"
       gradientTransform="matrix(0.112,0,0,0.09949,0.0032833,71.314)"
       y1="-287.07999"
       x1="156.28999"><stop
         id="stop56"
         style="stop-color:#300503"
         offset="0" /><stop
         id="stop58"
         style="stop-color:#8e3a31"
         offset=".7529" /><stop
         id="stop60"
         style="stop-color:#ad463a"
         offset=".89410" /><stop
         id="stop62"
         style="stop-color:#720d07"
         offset=".97250" /><stop
         id="stop64"
         style="stop-color:#720d07"
         offset="1" /></linearGradient><linearGradient
       id="linearGradient78"
       y2="-515.39001"
       gradientUnits="userSpaceOnUse"
       x2="44.950001"
       gradientTransform="matrix(0.112,0,0,0.09949,0.0032833,71.314)"
       y1="-515.39001"
       x1="164.05"><stop
         id="stop80"
         style="stop-color:#300503"
         offset="0" /><stop
         id="stop82"
         style="stop-color:#8e3a31"
         offset=".7529" /><stop
         id="stop84"
         style="stop-color:#ad463a"
         offset=".89410" /><stop
         id="stop86"
         style="stop-color:#720d07"
         offset=".97250" /><stop
         id="stop88"
         style="stop-color:#720d07"
         offset="1" /></linearGradient><filter
       inkscape:collect="always"
       style="color-interpolation-filters:sRGB"
       id="filter22822"
       x="-0.3570247"
       width="1.7140495"
       y="-0.24176767"
       height="1.4835354"><feGaussianBlur
         inkscape:collect="always"
         stdDeviation="5.2185316"
         id="feGaussianBlur22824" /></filter></defs><g
     id="g10"
     transform="matrix(1.25,0,0,-1.25,394.67064,793.58022)"><g
       id="g12"><g
         id="g22826"
         transform="matrix(15.400256,0,0,8.9024887,-315.73651,-0.00790249)"><path
           inkscape:connector-curvature="0"
           d="m 6.008,70.427 c 0.043,-0.078 0.144,-0.148 0.301,-0.211 0.214,-0.09 0.636,-0.156 1.265,-0.195 0.633,-0.039 1.543,-0.055 2.738,-0.043 1.196,0.008 2.106,0.027 2.735,0.059 0.629,0.027 1.16,0.203 1.59,0.527 L 14.629,68.47 c -0.031,-0.09 -0.141,-0.168 -0.317,-0.246 -0.214,-0.09 -0.527,-0.172 -0.941,-0.246 -0.844,-0.16 -1.867,-0.242 -3.062,-0.242 -1.192,0 -2.211,0.082 -3.059,0.242 -0.414,0.074 -0.73,0.156 -0.941,0.246 -0.192,0.082 -0.301,0.172 -0.325,0.266 -0.004,0.015 -0.004,0.031 -0.004,0.043 0,0.035 0.008,0.066 0.028,0.097 l 0,1.797 z"
           style="fill:#0e7207;fill-opacity:1;fill-rule:evenodd"
           id="path14" /><path
           inkscape:connector-curvature="0"
           d="m 14.637,70.564 c -0.43,-0.324 -0.961,-0.5 -1.59,-0.527 -0.629,-0.032 -1.539,-0.051 -2.735,-0.059 -1.195,-0.012 -2.105,0.004 -2.738,0.043 -0.629,0.039 -1.051,0.105 -1.265,0.195 -0.157,0.063 -0.258,0.133 -0.301,0.211 l 0,0.192 c 0.105,0.175 0.519,0.328 1.242,0.461 0.848,0.156 1.867,0.234 3.059,0.234 1.195,0 2.218,-0.078 3.062,-0.234 0.789,-0.145 1.211,-0.317 1.266,-0.516 z M 6.191,67.998 c -0.003,0.011 -0.003,0.023 -0.003,0.039 0,0.066 0.039,0.129 0.121,0.187 0.211,-0.09 0.527,-0.172 0.941,-0.246 0.848,-0.16 1.867,-0.242 3.059,-0.242 1.195,0 2.218,0.082 3.062,0.242 0.414,0.074 0.727,0.156 0.941,0.246 0.063,-0.047 0.102,-0.098 0.118,-0.148 l -0.008,-0.098 c -0.07,-0.184 -0.469,-0.34 -1.195,-0.473 -0.805,-0.152 -1.778,-0.226 -2.918,-0.226 -1.137,0 -2.106,0.074 -2.914,0.226 -0.754,0.133 -1.157,0.297 -1.204,0.493 z"
           style="fill:#20512b;fill-opacity:1;fill-rule:evenodd"
           id="path16" /><g
           id="g18"><g
             id="g20"><g
               id="g26"><path
                 inkscape:connector-curvature="0"
                 d="m 6.191,67.998 c 0.047,-0.196 0.45,-0.36 1.204,-0.493 0.808,-0.152 1.777,-0.226 2.914,-0.226 1.14,0 2.113,0.074 2.918,0.226 0.726,0.133 1.125,0.289 1.195,0.473 l 0.012,-14.777 c -0.012,-0.203 -0.414,-0.379 -1.207,-0.52 -0.805,-0.152 -1.778,-0.226 -2.918,-0.226 -1.137,0 -2.106,0.074 -2.914,0.226 -0.805,0.145 -1.207,0.32 -1.207,0.531 l 0,2.997 0.003,0 0,11.789 z"
                 style="fill:url(#linearGradient28);fill-rule:evenodd"
                 id="path40" /></g></g></g><path
           inkscape:connector-curvature="0"
           d="m 5.172,49.525 1.016,3.687 c 0,-0.211 0.402,-0.386 1.207,-0.531 0.808,-0.152 1.777,-0.226 2.914,-0.226 1.14,0 2.113,0.074 2.918,0.226 0.793,0.141 1.195,0.317 1.207,0.52 l 1.031,-3.785 0,-0.004 c -0.024,-0.254 -0.531,-0.469 -1.512,-0.649 -1.004,-0.183 -2.219,-0.277 -3.644,-0.277 -1.422,0 -2.641,0.094 -3.649,0.277 -1.004,0.184 -1.504,0.406 -1.504,0.668 0,0.031 0.008,0.063 0.02,0.094 l -0.004,0 z"
           style="fill:#cc3300;fill-rule:evenodd"
           id="path42" /><g
           id="g44"><g
             id="g46"><g
               id="g52"><path
                 inkscape:connector-curvature="0"
                 d="m 15.465,49.412 c 0.473,-1.368 1.371,-3.118 2.695,-5.254 0.125,-0.203 0.242,-0.391 0.356,-0.571 0.504,-0.82 0.851,-1.394 1.039,-1.726 0.453,-0.813 0.781,-1.524 0.988,-2.141 0.004,-0.004 0.004,-0.011 0.008,-0.019 l 0,-0.446 c -0.258,-0.425 -1.239,-0.793 -2.953,-1.105 -2.012,-0.371 -4.442,-0.559 -7.289,-0.559 -2.852,0 -5.282,0.188 -7.293,0.559 -1.77,0.324 -2.758,0.707 -2.973,1.144 l 0,0.383 c 0.203,0.66 0.543,1.418 1.019,2.274 0.196,0.351 0.524,0.894 0.981,1.636 0.141,0.223 0.289,0.465 0.453,0.727 1.359,2.172 2.25,3.902 2.672,5.187 l 0.004,0.024 0.004,0 c -0.012,-0.031 -0.02,-0.063 -0.02,-0.094 0,-0.262 0.5,-0.484 1.504,-0.668 1.008,-0.183 2.227,-0.277 3.649,-0.277 1.425,0 2.64,0.094 3.644,0.277 0.985,0.18 1.488,0.395 1.512,0.649 z"
                 style="fill:url(#linearGradient54);fill-rule:evenodd"
                 id="path66" /></g></g></g><g
           id="g68"><g
             id="g70"><g
               id="g76"><path
                 inkscape:connector-curvature="0"
                 d="m 20.551,39.255 0.019,-36.398 0,-0.371 C 20.484,2.31 20.277,2.142 19.941,1.982 19.441,1.748 18.66,1.533 17.598,1.337 16.051,1.052 14.258,0.876 12.219,0.81 11.602,0.791 10.965,0.783 10.309,0.783 9.648,0.783 9.012,0.791 8.398,0.81 6.355,0.876 4.562,1.052 3.016,1.337 1.957,1.533 1.18,1.748 0.68,1.982 0.25,2.185 0.023,2.4 0,2.63 l 0.004,0.11 0.039,36.558 c 0.215,-0.441 1.203,-0.824 2.973,-1.148 2.011,-0.371 4.441,-0.559 7.293,-0.559 2.847,0 5.277,0.188 7.289,0.559 1.714,0.312 2.695,0.68 2.953,1.105 z"
                 style="fill:url(#linearGradient78);fill-rule:evenodd"
                 id="path90" /></g></g></g><path
           inkscape:connector-curvature="0"
           d="M 19.941,1.982 C 19.98,1.916 20,1.845 20,1.775 20,1.416 19.488,1.091 18.465,0.81 18.094,0.709 17.66,0.615 17.16,0.521 15.27,0.173 12.984,0.001 10.309,0.001 7.629,0.001 5.344,0.173 3.453,0.521 2.953,0.615 2.52,0.709 2.152,0.81 1.129,1.091 0.617,1.416 0.617,1.775 c 0,0.07 0.02,0.141 0.059,0.207 C 1.18,1.748 1.957,1.533 3.016,1.337 4.562,1.052 6.355,0.876 8.398,0.81 9.012,0.791 9.648,0.779 10.309,0.779 c 0.656,0 1.293,0.012 1.906,0.031 2.043,0.066 3.836,0.242 5.383,0.527 1.062,0.196 1.84,0.411 2.343,0.645 z"
           style="fill:#160201;fill-rule:evenodd"
           id="path92" /><path
           inkscape:connector-curvature="0"
           d="M 3.008,71.162 3.012,71.166 3.008,71.162 Z"
           style="fill:#ddded0;fill-rule:evenodd"
           id="path94" /><path
           inkscape:connector-curvature="0"
           d="m 20.617,31.728 0,-20.723 C 19.855,10.478 18.914,10.095 17.785,9.853 16.77,9.638 15.457,9.529 13.852,9.529 11.57,9.529 9.793,9.626 8.52,9.814 7.562,9.959 6.203,10.263 4.445,10.732 4.344,10.759 4.242,10.787 4.141,10.814 4.109,11.177 4.074,11.65 4.023,12.24 3.949,13.177 3.91,13.927 3.91,14.486 c 0,0.308 0.031,0.84 0.086,1.586 0.055,0.75 0.063,1.324 0.016,1.722 -0.047,0.403 -0.086,1.024 -0.117,1.86 -0.032,0.84 -0.02,1.445 0.031,1.816 0.051,0.367 0.09,1.313 0.113,2.824 0.027,1.516 0.039,2.567 0.043,3.157 0,0.316 0.035,0.98 0.106,1.992 0.007,0.105 0.011,0.203 0.019,0.297 -0.043,0.48 -0.074,0.836 -0.098,1.07 0.055,-0.016 0.11,-0.031 0.168,-0.043 0.012,-0.008 0.024,-0.008 0.039,-0.012 0.11,-0.027 0.215,-0.05 0.321,-0.07 0.074,-0.016 0.148,-0.031 0.222,-0.043 0.418,-0.074 0.801,-0.113 1.153,-0.113 l 0.066,0 c 1.711,-0.211 3.27,-0.285 4.676,-0.223 1.41,0.059 2.387,0.094 2.937,0.102 0.547,0.008 1.766,0.16 3.653,0.461 1.886,0.3 2.98,0.586 3.273,0.859 z"
           style="fill:#796f52;fill-opacity:1;fill-rule:evenodd"
           id="path96" /><path
           inkscape:connector-curvature="0"
           id="path22672"
           d="m 6.4145831,10.08006 c -0.1983723,1.014751 -0.945382,2.00845 -0.5581934,3.071458 0.7193009,0.851093 0.3271704,2.037357 0.4136384,3.047406 -0.059574,1.379731 0.053218,2.759936 0.3164377,4.114105 0.1412138,0.779634 -0.1060574,1.761117 0.016893,2.431484 C 7.0279265,21.503979 6.7693359,20.075041 7.485433,18.93287 7.6021598,17.91493 6.7506228,16.901693 7.2888851,15.915285 7.8191886,15.739794 8.2956139,14.432552 8.7071347,14.88889 c 0.2982219,0.814697 0.5888255,1.630541 0.9227003,2.431684 0.2633572,0.858441 0.615119,1.780361 0.2721982,2.670258 -0.2467849,0.781533 -0.5184828,1.655348 -0.1193371,2.436022 0.2529169,1.171074 0.2969719,2.415206 -0.064975,3.568848 1.1074869,-0.999282 1.7533479,-2.473973 1.7817389,-3.96126 0.726296,-1.868716 0.447063,-3.921332 0.932139,-5.842632 0.180797,-0.882271 -0.06627,-2.444773 1.340553,-2.222454 0.882636,0.279082 0.536967,1.443966 0.674351,2.151417 0.03415,0.746437 -0.319036,1.710932 0.330179,2.256917 0.572832,0.88398 -0.09896,1.868412 -0.527799,2.652268 -0.578278,0.846346 0.314378,1.584032 0.50789,2.371508 -0.0589,0.839008 -0.845485,1.607357 -0.2937,2.514257 0.479719,0.571482 0.0662,1.596819 0.309019,1.982378 1.028556,-0.529017 1.593224,-1.822749 1.211073,-2.927968 -0.08604,-0.858764 0.0726,-1.723247 0.137448,-2.579242 0.200057,-0.797572 0.190584,-1.613942 0.248101,-2.426126 0.15147,-0.992262 0.385645,-1.994087 0.213234,-2.999822 -0.08816,-0.459188 0.376784,-1.755877 0.738608,-0.78592 0.696848,1.251464 1.204695,2.780049 0.665792,4.185766 -0.249692,1.21343 0.222501,2.441663 -3.97e-4,3.6569 0.04275,0.859354 0.640123,2.027081 0.901482,2.547935 0.828446,-0.937605 0.312539,-2.243174 0.399103,-3.352591 -0.186126,-0.869733 -0.534031,-1.703372 -0.454623,-2.615358 -0.08183,-1.373141 0.112048,-2.741223 0.432482,-4.072404 0.182015,-1.485498 -0.134671,-2.995146 0.189018,-4.46783 C 19.712249,10.979049 18.55544,10.129515 17.61668,9.9166255 16.368419,9.8737784 15.141188,9.5168923 13.885304,9.6566804 12.59275,9.6440633 11.292842,9.6283282 10.015271,9.8379175 8.8674404,9.8947909 7.6624899,10.173484 6.5495156,10.05359 c -0.044976,0.0088 -0.090001,0.01769 -0.1349325,0.02647 z"
           style="fill:#e4b04e;fill-opacity:1;fill-rule:evenodd;stroke:#af9451;stroke-width:0.31999999;stroke-linecap:butt;stroke-linejoin:miter;stroke-miterlimit:4;stroke-dasharray:none;stroke-opacity:1" /><path
           inkscape:connector-curvature="0"
           d="m 20.617,11.005 0,-1.14 C 20.316,9.482 19.457,9.162 18.031,8.908 16.605,8.658 15.551,8.486 14.867,8.396 14.18,8.31 12.289,8.396 9.191,8.65 6.098,8.908 4.117,9.388 3.25,10.095 l 0,21.879 c 3.031,-0.492 6.109,-0.738 9.23,-0.738 1.563,0 3.008,0.094 4.336,0.285 1.313,0.191 2.579,0.48 3.801,0.871 l 0,-0.664 C 20.324,31.455 19.23,31.169 17.344,30.869 15.457,30.568 14.238,30.412 13.691,30.404 13.141,30.4 12.164,30.365 10.754,30.306 9.348,30.244 7.789,30.318 6.078,30.525 l -0.066,0.004 c -0.352,0 -0.735,0.039 -1.153,0.113 -0.074,0.012 -0.148,0.027 -0.222,0.039 -0.106,0.024 -0.211,0.047 -0.321,0.07 C 4.301,30.755 4.289,30.759 4.277,30.763 4.219,30.779 4.164,30.794 4.109,30.81 4.133,30.576 4.164,30.216 4.207,29.74 4.199,29.646 4.195,29.544 4.188,29.443 4.117,28.431 4.082,27.767 4.082,27.451 4.078,26.861 4.066,25.806 4.039,24.294 4.016,22.779 3.977,21.837 3.926,21.466 3.875,21.099 3.863,20.494 3.895,19.654 3.926,18.814 3.965,18.197 4.012,17.794 4.059,17.396 4.051,16.818 3.996,16.068 3.941,15.322 3.91,14.794 3.91,14.486 3.91,13.923 3.949,13.177 4.023,12.24 4.074,11.65 4.109,11.173 4.141,10.81 4.242,10.783 4.344,10.755 4.445,10.732 6.203,10.263 7.562,9.959 8.52,9.814 9.793,9.623 11.57,9.529 13.852,9.529 c 1.605,0 2.918,0.109 3.933,0.324 1.129,0.242 2.07,0.625 2.832,1.152 z"
           style="fill:#ff0000;fill-rule:evenodd"
           id="path98" /><g
           transform="matrix(0.27500133,0,0,-0.23801574,39.097298,16.865721)"
           inkscape:label="Layer 1"
           id="g22776"
           style="fill:#664a4a;fill-opacity:1;stroke:none;stroke-width:0.31269416;stroke-miterlimit:4;stroke-dasharray:none;filter:url(#filter22822)"><g
             style="fill:#664a4a;fill-opacity:1;stroke:none"
             id="g22778"
             transform="translate(-123.61228,-50.678264)"><path
               inkscape:connector-curvature="0"
               id="path22780"
               d="M 34.388,20.066 C 28.656496,27.65371 22.63924,35.167976 18.710892,43.900888 16.623693,48.239889 14.882794,52.748578 13.566,57.381 17.013683,57.996664 19.594252,55.141046 22.115467,53.295054 31.244461,46.127563 38.868249,37.301205 46.828742,28.909217 46.629726,25.899073 43.254755,24.968086 41.62139,22.893638 39.871337,20.878316 36.744075,20.968025 34.388,20.066 Z"
               style="fill:#664a4a;fill-opacity:1;fill-rule:evenodd;stroke:none;stroke-width:0.93808246;stroke-linecap:round;stroke-linejoin:round;stroke-miterlimit:4;stroke-dasharray:none" /><path
               inkscape:connector-curvature="0"
               id="path22782"
               d="m 34.649,19.584 c 1.234431,-2.166489 4.063063,-1.857569 6.108316,-1.3042 1.563316,0.780071 3.394142,0.142987 4.134827,-1.451403 0.994194,-1.820503 1.061701,-3.975314 1.968218,-5.827979 1.17345,-2.5394102 -4.513825,-3.4231199 -1.574492,-5.2171024 2.100087,-0.7265565 3.665594,1.987112 3.309655,3.8212968 -0.600241,3.2776836 -0.957318,6.7053296 -2.587966,9.6865666 -0.149178,2.633115 3.174379,4.358341 2.363579,7.094426 -0.48273,1.385791 -1.666197,3.958095 -3.217017,1.880004 -0.119225,-2.483589 -2.874183,1.638651 -3.621747,-1.006912 -0.149234,-1.160231 0.0144,-3.46424 -1.622725,-1.73791 -0.972946,0.788653 -3.116869,2.275137 -2.463545,-0.102202 0.258506,-1.465367 0.247392,-3.478463 -1.459617,-2.126726 -0.718829,0.322247 -1.437657,0.644494 -2.156486,0.966741 0.273022,-1.558196 0.545864,-3.116424 0.819,-4.6746 z"
               style="fill:#664a4a;fill-opacity:1;fill-rule:evenodd;stroke:none;stroke-width:0.93808246;stroke-linecap:round;stroke-linejoin:round;stroke-miterlimit:4;stroke-dasharray:none" /></g></g><g
           style="stroke:#413b28;stroke-width:0.31269416;stroke-miterlimit:4;stroke-dasharray:none;stroke-opacity:1"
           id="layer1"
           inkscape:label="Layer 1"
           transform="matrix(0.27500133,0,0,-0.23801574,38.501905,16.601979)"><g
             style="stroke:#413b28;stroke-opacity:1"
             transform="translate(-123.61228,-50.678264)"
             id="g22521"><path
               inkscape:connector-curvature="0"
               id="path2385"
               d="M 34.388,20.066 C 30.576419,25.416784 26.174775,30.357241 22.933181,36.102202 18.91947,42.75477 15.692297,49.901434 13.566,57.381 c 3.073058,0.742271 5.415842,-1.880022 7.747816,-3.399734 9.42911,-7.361743 17.338872,-16.413193 25.514926,-25.072049 0.286926,-2.551195 -3.368061,-3.6828 -4.697104,-5.657157 C 41.195504,22.194317 40.077223,21.439962 38.675414,21.238235 37.246276,20.84749 35.817138,20.456745 34.388,20.066 Z"
               style="fill:#f60505;fill-opacity:1;fill-rule:evenodd;stroke:#413b28;stroke-width:0.93808246;stroke-linecap:round;stroke-linejoin:round;stroke-miterlimit:4;stroke-dasharray:none;stroke-opacity:1" /><path
               inkscape:connector-curvature="0"
               id="path3157"
               d="m 34.649,19.584 c 1.538362,-2.587714 5.032893,-1.7782 7.305043,-0.838131 2.922499,-0.01036 3.633798,-3.422458 4.170558,-5.683622 0.523608,-2.073139 1.880416,-5.1389425 -1.439902,-5.0527576 -2.059737,-1.9143576 2.486617,-3.6200033 3.248017,-1.1746781 1.16193,2.2565006 0.153642,4.9684257 -0.14301,7.3761597 -0.5181,2.234287 -1.339107,4.39024 -2.340706,6.450629 2.35844,1.20012 3.930994,4.52259 2.260267,6.871806 0.07643,1.788274 -3.031306,2.716131 -2.390686,0.268773 -0.24683,-2.579184 -3.593999,2.580113 -3.634995,-0.02516 C 41.52639,26.743881 41.369195,25.710741 41.212,24.6776 c -1.251667,0.802667 -2.503333,1.605333 -3.755,2.408 0.01267,-1.49 0.02533,-2.98 0.038,-4.47 -1.221667,0.547667 -2.443333,1.095333 -3.665,1.643 0.273022,-1.558196 0.545864,-3.116424 0.819,-4.6746 z"
               style="fill:#74d506;fill-opacity:1;fill-rule:evenodd;stroke:#413b28;stroke-width:0.93808246;stroke-linecap:round;stroke-linejoin:round;stroke-miterlimit:4;stroke-dasharray:none;stroke-opacity:1" /></g></g><g
           transform="matrix(0.97379363,0,0,-0.96451728,-31.249859,16.687389)"
           style="font-style:normal;font-weight:normal;font-size:3.40991044px;line-height:125%;font-family:sans-serif;letter-spacing:0px;word-spacing:0px;fill:#a27e7b;fill-opacity:1;stroke:none;stroke-width:1px;stroke-linecap:butt;stroke-linejoin:miter;stroke-opacity:1"
           id="g22678"><path
             inkscape:connector-curvature="0"
             id="path22680"
             d="m 37.938783,3.5370211 c -0.134868,0.3749707 -0.717568,0.6051346 -0.561551,-0.00601 0.0046,-0.5356566 0.603129,-1.4313709 1.125331,-0.8018485 0.221373,0.3079969 0.932536,0.324897 0.67317,0.9013593 -0.06687,0.4959223 -0.958273,1.090824 -1.075379,0.3072118 -0.08057,-0.1356425 0.08769,-0.4743612 -0.161571,-0.4007164 z"
             style="font-style:normal;font-variant:normal;font-weight:normal;font-stretch:normal;font-family:amemuchigothic-B;-inkscape-font-specification:amemuchigothic-B;fill:#a27e7b;fill-opacity:1" /><path
             inkscape:connector-curvature="0"
             id="path22682"
             d="m 39.689116,3.5536228 c 0.585377,-0.2968351 1.358168,0.2049309 0.907941,0.8453951 -0.196462,0.3755053 -0.680591,1.0369412 -1.134392,0.6755961 -0.186749,-0.3766053 -0.213039,-0.897549 -0.02284,-1.272237 0.05135,-0.1112801 0.1636,-0.1674011 0.249287,-0.2487542 z m 0.3625,1.3752285 c 0.392962,-0.08355 0.673619,-0.6456091 0.05972,-0.5812665 -0.554778,-0.042803 -0.529962,0.4166403 -0.05972,0.5812665 z"
             style="font-style:normal;font-variant:normal;font-weight:normal;font-stretch:normal;font-family:amemuchigothic-B;-inkscape-font-specification:amemuchigothic-B;fill:#a27e7b;fill-opacity:1" /><path
             inkscape:connector-curvature="0"
             id="path22684"
             d="m 42.140716,3.8595476 c -0.0418,0.3477398 0.159182,1.2055827 -0.279746,1.1892658 -0.304287,-0.4451506 -0.4811,-1.0250993 -0.409193,-1.5642026 0.198527,-0.3205244 0.553488,0.2497797 0.688939,0.3749368 z"
             style="font-style:normal;font-variant:normal;font-weight:normal;font-stretch:normal;font-family:amemuchigothic-B;-inkscape-font-specification:amemuchigothic-B;fill:#a27e7b;fill-opacity:1" /><path
             inkscape:connector-curvature="0"
             id="path22686"
             d="m 45.434153,3.8005092 c -0.628577,0.3248973 -0.282952,1.2133895 -0.356129,1.7841659 -0.06115,0.6434917 -0.783526,-0.2313957 -0.77234,-0.5079906 -0.02554,-0.633809 -0.10054,-1.3431617 0.230808,-1.9131042 0.383123,-0.3322549 0.722166,0.3993888 0.897661,0.6369289 z"
             style="font-style:normal;font-variant:normal;font-weight:normal;font-stretch:normal;font-family:amemuchigothic-B;-inkscape-font-specification:amemuchigothic-B;fill:#a27e7b;fill-opacity:1" /><path
             inkscape:connector-curvature="0"
             id="path22688"
             d="m 46.460297,3.9031501 c 0.68714,-0.219632 1.062514,0.552411 0.588649,1.0416848 -0.13623,0.3412999 -0.952673,1.0427688 -0.875855,0.2791906 0.256342,-0.4532945 0.0069,-0.7775392 -0.115909,-1.2053019 0.04967,-0.164963 0.276105,-0.1250652 0.403115,-0.1155735 z m 0.399934,0.9296868 c -0.556309,-0.2999384 -0.542709,0.4735425 -0.03999,0.4557776 0.143513,-0.099104 0.06054,-0.3191105 0.03999,-0.4557776 z"
             style="font-style:normal;font-variant:normal;font-weight:normal;font-stretch:normal;font-family:amemuchigothic-B;-inkscape-font-specification:amemuchigothic-B;fill:#a27e7b;fill-opacity:1" /><path
             inkscape:connector-curvature="0"
             id="path22690"
             d="m 47.331698,3.8844511 c 0.49028,0.1800551 0.928664,0.6423347 1.478534,0.5699475 0.52749,-0.4141045 0.515643,0.9914917 -0.140536,0.8809796 -0.619934,0.1125881 -1.494145,-0.2204868 -1.494283,-0.9493314 0.0069,-0.1774001 0.0703,-0.3480095 0.156285,-0.5015957 z"
             style="font-style:normal;font-variant:normal;font-weight:normal;font-stretch:normal;font-family:amemuchigothic-B;-inkscape-font-specification:amemuchigothic-B;fill:#a27e7b;fill-opacity:1" /><path
             inkscape:connector-curvature="0"
             id="path22692"
             d="m 49.48831,4.4256165 c -0.03597,-0.3172109 0.222967,-1.295925 0.544123,-0.622926 0.115117,0.3367055 0.482257,1.1916138 0.0032,1.2689676 C 49.796293,4.9153926 49.646475,4.6562898 49.48831,4.4256165 Z"
             style="font-style:normal;font-variant:normal;font-weight:normal;font-stretch:normal;font-family:amemuchigothic-B;-inkscape-font-specification:amemuchigothic-B;fill:#a27e7b;fill-opacity:1" /><path
             inkscape:connector-curvature="0"
             id="path22694"
             d="M 51.493697,3.7349491 C 51.878293,3.9368002 52.232825,3.528215 51.763906,3.3057166 51.413053,3.0506707 51.382507,3.5211788 51.493697,3.7349491 Z m 0.08903,0.28268 c 0.18057,0.2327685 0.11954,0.5727248 -0.120697,0.2099653 -0.347537,-0.3528315 -0.758312,-1.3817053 0.06789,-1.3767519 0.666242,-0.1472817 1.300725,0.6320922 0.624752,1.1023865 -0.160647,0.1254846 -0.388124,0.1548689 -0.571944,0.0644 z"
             style="font-style:normal;font-variant:normal;font-weight:normal;font-stretch:normal;font-family:amemuchigothic-B;-inkscape-font-specification:amemuchigothic-B;fill:#a27e7b;fill-opacity:1" /></g><g
           id="text22525"
           style="font-style:normal;font-weight:normal;font-size:3.40991044px;line-height:125%;font-family:sans-serif;letter-spacing:0px;word-spacing:0px;fill:#c2392f;fill-opacity:1;stroke:none;stroke-width:1px;stroke-linecap:butt;stroke-linejoin:miter;stroke-opacity:1"
           transform="matrix(0.97379363,0,0,-0.96451728,-31.249859,16.687389)"><path
             inkscape:connector-curvature="0"
             id="path22616"
             d="m 37.938783,3.5370211 c -0.403215,0.2469533 -0.437596,1.595295 -1.023785,0.7526315 0.591908,-0.40729 0.319087,-2.7956943 1.193597,-1.9124698 -0.515483,0.951397 0.736177,1.4118569 0.724656,0.3047589 1.164289,-0.7382396 0.05695,1.1830215 0.131034,1.8307211 -0.51832,0.909919 -0.817693,-0.1374516 -0.435398,-0.6868073 -0.05748,-0.2608583 -0.380861,-0.2735787 -0.590104,-0.2888344 z"
             style="font-style:normal;font-variant:normal;font-weight:normal;font-stretch:normal;font-family:amemuchigothic-B;-inkscape-font-specification:amemuchigothic-B;fill:#c2392f;fill-opacity:1" /><path
             inkscape:connector-curvature="0"
             id="path22618"
             d="m 39.689116,3.5536228 c 1.594775,-0.8931303 1.864911,2.2735191 0.165298,1.6603508 -0.712538,-0.3176152 -0.7606,-1.1957 -0.165298,-1.6603508 z m 0.3625,1.3752285 c 1.291464,-0.068934 -0.24514,-2.0943375 -0.309528,-0.4616887 -0.0063,0.1920319 0.08816,0.4337588 0.309528,0.4616887 z"
             style="font-style:normal;font-variant:normal;font-weight:normal;font-stretch:normal;font-family:amemuchigothic-B;-inkscape-font-specification:amemuchigothic-B;fill:#c2392f;fill-opacity:1" /><path
             inkscape:connector-curvature="0"
             id="path22620"
             d="m 42.140716,3.8595476 c 0.889897,-0.285091 0.464345,0.7699232 -0.09944,0.5369646 -0.165813,0.5152269 0.72602,1.7369684 -0.35118,0.9739008 -0.426263,-0.5776728 -0.204372,-2.8313 0.643783,-2.0090593 -0.06194,0.1572162 -0.304923,0.3084382 -0.193164,0.4981939 z"
             style="font-style:normal;font-variant:normal;font-weight:normal;font-stretch:normal;font-family:amemuchigothic-B;-inkscape-font-specification:amemuchigothic-B;fill:#c2392f;fill-opacity:1" /><path
             inkscape:connector-curvature="0"
             id="path22622"
             d="m 45.434153,3.8005092 c -0.967483,-0.7151176 -1.166694,0.7656782 -0.130074,0.7466073 0.838913,0.8028004 -1.078284,1.9628523 -1.328955,0.7823806 1.11729,0.4287983 1.121202,-0.8132122 0.100801,-0.939775 -0.714828,-0.9882981 1.434004,-1.917907 1.358228,-0.5892129 z"
             style="font-style:normal;font-variant:normal;font-weight:normal;font-stretch:normal;font-family:amemuchigothic-B;-inkscape-font-specification:amemuchigothic-B;fill:#c2392f;fill-opacity:1" /><path
             inkscape:connector-curvature="0"
             id="path22624"
             d="m 46.460297,3.9031501 c 1.260149,-0.093053 1.369041,2.5422641 -0.198402,1.7619028 -1.226431,-0.2391511 0.423398,-1.2902315 0.36469,-1.3505337 -0.778707,0.1109513 -1.279438,-0.2282149 -0.166288,-0.4113691 z m 0.399934,0.9296868 c -1.275304,-0.168872 -0.0072,1.3449208 0,0 z"
             style="font-style:normal;font-variant:normal;font-weight:normal;font-stretch:normal;font-family:amemuchigothic-B;-inkscape-font-specification:amemuchigothic-B;fill:#c2392f;fill-opacity:1" /><path
             inkscape:connector-curvature="0"
             id="path22626"
             d="M 47.331698,3.8844511 C 48.620106,3.1068514 47.615612,5.7242419 48.785356,4.864667 48.571601,4.4090834 48.410887,3.1354532 49.260115,3.8445475 49.022594,4.618104 49.846625,5.7530434 48.606074,5.4588981 47.509875,6.055384 47.848225,4.3219501 47.331698,3.8844511 Z"
             style="font-style:normal;font-variant:normal;font-weight:normal;font-stretch:normal;font-family:amemuchigothic-B;-inkscape-font-specification:amemuchigothic-B;fill:#c2392f;fill-opacity:1" /><path
             inkscape:connector-curvature="0"
             id="path22628"
             d="M 49.48831,4.4256165 C 48.675586,3.436535 51.466764,2.9829272 50.156055,3.7416934 48.974064,4.7404819 52.045643,4.8112572 50.430361,5.1568398 50.014614,5.1653833 49.480777,4.9050826 49.48831,4.4256165 Z"
             style="font-style:normal;font-variant:normal;font-weight:normal;font-stretch:normal;font-family:amemuchigothic-B;-inkscape-font-specification:amemuchigothic-B;fill:#c2392f;fill-opacity:1" /><path
             inkscape:connector-curvature="0"
             id="path22630"
             d="m 51.493697,3.7349491 c 1.379866,-0.023741 -0.07521,-1.1912595 0,0 z m 0.08903,0.28268 c 0.236391,0.5128834 1.791262,0.057061 0.593656,0.6840708 -1.762297,0.2431316 -1.128183,-2.878337 0.378532,-1.5199863 0.360086,0.5740123 -0.59892,0.7972965 -0.972188,0.8359155 z"
             style="font-style:normal;font-variant:normal;font-weight:normal;font-stretch:normal;font-family:amemuchigothic-B;-inkscape-font-specification:amemuchigothic-B;fill:#c2392f;fill-opacity:1" /></g></g><path
         style="fill:none;fill-rule:evenodd;stroke:none;stroke-width:0.80000001px;stroke-linecap:butt;stroke-linejoin:miter;stroke-opacity:1"
         d="m 36.725251,4.3408215 c 5.991643,1.9502212 11.137408,1.8562346 16.494642,-0.07049"
         id="path22580"
         inkscape:connector-curvature="0"
         sodipodi:nodetypes="cc" /></g></g><metadata
     id="metadata21879"><rdf:RDF><cc:Work><dc:format>image/svg+xml</dc:format><dc:type
           rdf:resource="http://purl.org/dc/dcmitype/StillImage" /><cc:license
           rdf:resource="http://creativecommons.org/publicdomain/zero/1.0/" /><dc:publisher><cc:Agent
             rdf:about="http://openclipart.org/"><dc:title>Openclipart</dc:title></cc:Agent></dc:publisher><dc:title></dc:title></cc:Work><cc:License
         rdf:about="http://creativecommons.org/publicdomain/zero/1.0/"><cc:permits
           rdf:resource="http://creativecommons.org/ns#Reproduction" /><cc:permits
           rdf:resource="http://creativecommons.org/ns#Distribution" /><cc:permits
           rdf:resource="http://creativecommons.org/ns#DerivativeWorks" /></cc:License></rdf:RDF></metadata></svg>